# xmcd
#
# Track frame offsets:
#	150
#	17464
#	35253
#	53869
#	70044
#	85004
#	101121
#	117353
#	133054
#	151362
#	166201
#	183026
#	201039
#	217396
#	232699
#	250158
#	268205
#	285707
#	301508
#	317788
#	333055
#
# Disc length: 4676 seconds
#
# Revision: 1
# Processed by: cddbd v1.5PL3 Copyright (c) Steve Scherf et al.
# Submitted via: EasyCDDAExtractor 5.0.6
#
DISCID=19124215
DTITLE=Various Artist - Future Dance 2
DYEAR=1997
DGENRE=Dance
TTITLE0=Various Artist - Reflect - 1,2 and 3
TTITLE1=Insomnia - Faithless
TTITLE2=Black Betty - Flashback
TTITLE3=Popcorn - Spiffy
TTITLE4=To France - R2
TTITLE5=Satisfaction Guaran teed - X-Man
TTITLE6=Nowhere to run - Chiara
TTITLE7=Take a Change - Tripple G
TTITLE8=From Dusj Till Dawn - Drop of Love
TTITLE9=Take me There - Maximum
TTITLE10=X-Child - Bell Boy
TTITLE11=A Forest - Immaculate
TTITLE12=The Theme - Brooklyn Bounce
TTITLE13=Miracles - The 8th
TTITLE14=To The Sky - Cloudmaker
TTITLE15=Rythm Vibe - Vibezz
TTITLE16=Encore une Fois - Sash
TTITLE17=The Opera - Central Seven
TTITLE18=I Have a Dream - Silverdust
TTITLE19=Why Dont You Dance With Me - Futuristic E
TTITLE20=Flash - B.B.E
EXTD=
EXTT0=
EXTT1=
EXTT2=
EXTT3=
EXTT4=
EXTT5=
EXTT6=
EXTT7=
EXTT8=
EXTT9=
EXTT10=
EXTT11=
EXTT12=
EXTT13=
EXTT14=
EXTT15=
EXTT16=
EXTT17=
EXTT18=
EXTT19=
EXTT20=
PLAYORDER=
